<svg xmlns="http://www.w3.org/2000/svg" width="220.34" height="224.649" viewBox="0 0 220.34 224.649"><defs><style>.a{opacity:0.2;}.b{fill:#f9a31a;}.c{fill:#fff;}.c,.d{stroke:#3d3d3d;}.d,.i{fill:none;}.d{stroke-width:2px;}.e{fill:#ffc13e;}.f{fill:#ffd175;}.g,.h{stroke:none;}.h{fill:#3d3d3d;}</style></defs><g transform="translate(-555.278 -5666.147)"><g class="a" transform="translate(585.278 5760.178)"><path class="g" d="M 159.8405151367188 100.1184005737305 L 0.5000075697898865 100.1184005737305 L 0.5000075697898865 4.63966703414917 L 77.54826354980469 -63.37324523925781 L 159.8405151367188 4.649485111236572 L 159.8405151367188 100.1184005737305 Z"/><path class="h" d="M 77.55890655517578 -62.71572875976563 L 1 4.865207672119141 L 1 99.61840057373047 L 159.3405151367188 99.61840057373047 L 159.3405151367188 4.884904861450195 L 77.55890655517578 -62.71572875976563 M 77.53759002685547 -64.03076934814453 L 160.3405151367188 4.414085388183594 L 160.3405151367188 100.6184005737305 L 0 100.6184005737305 L 0 4.414085388183594 L 77.53759002685547 -64.03076934814453 Z"/></g><g class="b" transform="translate(589.92 5764.945)"><path class="g" d="M 150.5555572509766 90.58392333984375 L 0.4999986290931702 90.58392333984375 L 0.4999986290931702 0.6761709451675415 L 73.0582275390625 -63.37324142456055 L 150.5555572509766 0.6860026121139526 L 150.5555572509766 90.58392333984375 Z"/><path class="h" d="M 73.06889343261719 -62.71572113037109 L 1 0.9017429351806641 L 1 90.08392333984375 L 150.0555572509766 90.08392333984375 L 150.0555572509766 0.9214038848876953 L 73.06889343261719 -62.71572113037109 M 73.04756164550781 -64.03076171875 L 151.0555572509766 0.4506015777587891 L 151.0555572509766 91.08392333984375 L 0 91.08392333984375 L 0 0.4506015777587891 L 73.04756164550781 -64.03076171875 Z"/></g><g transform="translate(609.877 5734.629)"><g class="c" transform="translate(0.123 0.371)"><rect class="g" width="112" height="114"/><rect class="i" x="0.5" y="0.5" width="111" height="113"/></g><line class="d" x2="45.317" transform="translate(5.723 15.157)"/><line class="d" x2="74.521" transform="translate(5.723 26.235)"/><line class="d" x2="74.521" transform="translate(5.723 48.389)"/><line class="d" x2="74.521" transform="translate(5.723 37.312)"/><line class="d" x2="74.521" transform="translate(5.723 59.467)"/></g><g class="e" transform="translate(653.867 5765.899) rotate(90)"><path class="g" d="M 89.66173553466797 62.94334030151367 L 0.9716005325317383 62.94334030151367 L 45.31666946411133 0.8602400422096252 L 89.66173553466797 62.94334030151367 Z"/><path class="h" d="M 45.31666946411133 1.720462799072266 L 1.943183898925781 62.44332885742188 L 88.69013977050781 62.44332885742188 L 45.31666946411133 1.720462799072266 M 45.31666946411133 -7.62939453125e-06 L 90.63333129882813 63.44332885742188 L -7.62939453125e-06 63.44332885742188 L 45.31666946411133 -7.62939453125e-06 Z"/></g><g class="e" transform="translate(678.036 5856.533) rotate(-90)"><path class="g" d="M 89.66173553466797 62.94334030151367 L 0.9716005325317383 62.94334030151367 L 45.31666946411133 0.8602400422096252 L 89.66173553466797 62.94334030151367 Z"/><path class="h" d="M 45.31666946411133 1.720462799072266 L 1.943183898925781 62.44332885742188 L 88.69013977050781 62.44332885742188 L 45.31666946411133 1.720462799072266 M 45.31666946411133 -7.62939453125e-06 L 90.63333129882813 63.44332885742188 L -7.62939453125e-06 63.44332885742188 L 45.31666946411133 -7.62939453125e-06 Z"/></g><g class="f" transform="translate(590 5792)"><path class="g" d="M 149.6369018554688 63.5 L 1.363096594810486 63.5 L 75.5 0.6554725766181946 L 149.6369018554688 63.5 Z"/><path class="h" d="M 75.5 1.310947418212891 L 2.7261962890625 63 L 148.2738037109375 63 L 75.5 1.310947418212891 M 75.5 0 L 151 64 L 0 64 L 75.5 0 Z"/></g></g></svg>