<svg xmlns="http://www.w3.org/2000/svg" width="1269.395" height="726.84" viewBox="0 0 1269.395 726.84"><defs><style>.a{opacity:0.25;}.b{fill:#dfe0e1;}.b,.c,.d{stroke:#b8b8b8;stroke-linecap:round;}.b,.d{stroke-width:2px;}.c,.d{fill:none;}.d{stroke-linejoin:round;}</style></defs><g class="a" transform="translate(-8280.962 867.188)"><path class="b" d="M8997.884-813.289s-286.042-13.214-403.407-3.887-155.449,15.546-155.449,15.546l115.813,123.585-57.513,178s206.74-164.781,310.9-222.3S8997.884-813.289,8997.884-813.289Z" transform="translate(120.388 34.853)"/><path class="b" d="M0,7.219S286.035-5.995,403.4,3.332,558.857,18.878,558.857,18.878L443.044,142.464l57.517,178S293.806,155.678,189.654,98.16,0,7.219,0,7.219Z" transform="translate(8728.246 -405.397) rotate(-35)"/><path class="c" d="M8830.277-810.27s-107.271,17.877-186.543,49.745c-79.292,31.868-135.243,71.508-135.243,71.508" transform="translate(173.735 42.715)"/><path class="c" d="M0,0S122.567,13.124,201.85,44.992s134.027,62.1,134.027,62.1" transform="translate(8813.582 -434.106) rotate(-35)"/><path class="d" d="M8762.16-797.175s115.036-26.2,171-26.98,115.461,2.779,115.461,2.779l-44.39-29.517,3.361,70.129L9049.7-818.8" transform="translate(368.538 11.519)"/><path class="d" d="M9049.684-834.482s-115.025,26.2-171,26.98-115.452-2.779-115.452-2.779l44.381,29.517-3.352-70.129-42.1,38.039" transform="translate(-336.703 455.985)"/><path class="d" d="M8626.422-729.877S8479-681.934,8393.5-579.693s-111.247,168.142-111.247,168.142" transform="translate(0 104.452)"/><path class="d" d="M8282.258-411.551s147.418-47.944,232.916-150.185,111.248-168.142,111.248-168.142" transform="translate(922.638 -136.015)"/></g></svg>