<svg xmlns="http://www.w3.org/2000/svg" width="91.674" height="54.682" viewBox="0 0 91.674 54.682"><defs><style>.a{fill:#fff;}.a,.b,.c{stroke:#000;stroke-linecap:round;}.a,.c{stroke-width:2px;}.b,.c{fill:none;}.c{stroke-linejoin:round;}</style></defs><g transform="translate(-8280.963 867.188)"><path class="a" d="M8478.326-820s-20.114-.929-28.368-.273-10.932,1.093-10.932,1.093l8.145,8.691-4.045,12.517s14.539-11.588,21.863-15.633A124.7,124.7,0,0,1,8478.326-820Z" transform="translate(-137.278 -39.742)"/><path class="a" d="M0,.508S20.115-.422,28.368.234,39.3,1.328,39.3,1.328l-8.144,8.691L35.2,22.535S20.661,10.948,13.337,6.9A124.705,124.705,0,0,0,0,.508Z" transform="translate(8313.621 -833.509) rotate(-35)"/><path class="b" d="M8531.121-810.27a75.321,75.321,0,0,0-13.118,3.5,51.157,51.157,0,0,0-9.511,5.029" transform="translate(-198.108 -48.707)"/><path class="b" d="M0,0S8.619.923,14.195,3.164A94.217,94.217,0,0,1,23.62,7.531" transform="translate(8319.622 -835.528) rotate(-35)"/><path class="c" d="M8762.16-847.115s8.09-1.843,12.025-1.9,8.119.2,8.119.2l-3.121-2.076.236,4.932,2.961-2.675" transform="translate(-420.238 -13.135)"/><path class="c" d="M8782.382-849.738s-8.09,1.843-12.025,1.9-8.119-.2-8.119-.2l3.121,2.076-.235-4.932-2.961,2.675" transform="translate(-469.834 18.121)"/><path class="c" d="M8306.46-729.877s-10.366,3.372-16.379,10.561-7.823,11.824-7.823,11.824" transform="translate(0 -119.105)"/><path class="c" d="M8282.259-707.492s10.367-3.372,16.379-10.561,7.823-11.824,7.823-11.824" transform="translate(64.881 -136.015)"/></g></svg>